<svg xmlns="http://www.w3.org/2000/svg" width="128" height="128" viewBox="0 0 1024 1024"><rect width="1024" height="1024" rx="225" fill="#DEFE00"/><path fill="#080B10" transform="translate(581,235)" d="M0 0 C-7.93 26.81 -15.97 53.57 -24.12 80.31 C-24.35 81.04 -24.57 81.76 -24.79 82.5 C-25.92 86.19 -27.04 89.88 -28.17 93.57 C-28.5 94.67 -28.5 94.67 -28.85 95.8 C-29.3 97.29 -29.76 98.78 -30.21 100.27 C-35.39 117.26 -40.54 134.25 -45.69 151.25 C-46.09 152.58 -46.49 153.92 -46.9 155.25 C-47.68 157.83 -48.46 160.4 -49.24 162.98 C-50 165.48 -50.75 167.98 -51.51 170.48 C-53.37 176.6 -55.22 182.72 -57.06 188.84 C-57.99 191.91 -58.92 194.99 -59.84 198.06 C-60.29 199.54 -60.74 201.02 -61.18 202.51 C-61.8 204.56 -62.42 206.61 -63.04 208.67 C-63.4 209.84 -63.75 211.02 -64.12 212.23 C-65 215 -65 215 -66 217 C-31.32 207.79 -0.81 191.01 25.38 166.43 C27.48 164.48 29.6 162.63 31.81 160.81 C34.85 158.23 37.44 155.4 40.01 152.35 C41.45 150.66 42.91 148.99 44.39 147.34 C73.97 114.11 93.03 70.13 98 26 C113.47 23.05 128.96 20.3 144.5 17.74 C155.19 15.98 165.86 14.18 176.54 12.36 C178.95 11.95 181.37 11.54 183.79 11.13 C184.59 10.99 185.4 10.85 186.23 10.71 C187.86 10.44 189.49 10.16 191.13 9.88 C195.22 9.18 199.31 8.49 203.41 7.79 C207.32 7.12 211.22 6.45 215.13 5.79 C216.6 5.54 218.06 5.29 219.52 5.04 C221.55 4.69 223.57 4.35 225.6 4.01 C226.74 3.81 227.89 3.62 229.07 3.42 C232 3 232 3 236 3 C236.16 11.12 235.76 19 234.75 27.06 C234.62 28.15 234.48 29.23 234.34 30.35 C226.13 93.59 192.52 153.61 144 195 C143.05 195.84 142.11 196.67 141.13 197.53 C115.92 219.57 86.53 236.49 56 250 C55.6 259.92 56.83 269.35 58.31 279.13 C58.55 280.7 58.78 282.28 59.01 283.86 C59.57 287.61 60.14 291.36 60.71 295.11 C61.08 297.53 61.43 299.95 61.79 302.37 C64.96 323.35 70.45 343.85 77 364 C77.44 365.35 77.87 366.69 78.31 368.04 C87.9 397.66 98.51 426.64 111.58 454.91 C112.79 457.54 113.99 460.18 115.18 462.82 C120.11 473.66 125.8 484.06 131.59 494.45 C132.83 496.69 134.06 498.93 135.28 501.18 C144 517.14 153.68 532.57 165 546.81 C165.51 547.45 166.02 548.1 166.55 548.76 C167 549.32 167.45 549.87 167.92 550.45 C169 552 169 552 170 555 C169.42 555.28 168.83 555.56 168.23 555.85 C154.35 562.49 140.48 569.18 126.63 575.9 C115.75 581.18 104.87 586.45 93.98 591.7 C86.76 595.18 79.56 598.67 72.36 602.17 C66.13 605.19 59.89 608.21 53.66 611.23 C51.35 612.34 49.05 613.46 46.75 614.58 C44.04 615.89 41.33 617.2 38.63 618.5 C37.87 618.87 37.12 619.24 36.34 619.61 C33.37 621.03 31.33 622 28 622 C7.88 582.22 -1.64 541.14 -9.53 497.6 C-9.84 495.9 -10.14 494.21 -10.45 492.52 C-11.93 484.45 -13.35 476.42 -14.12 468.25 C-14.61 462.97 -14.61 462.97 -15.48 457.76 C-16.15 454.21 -16.43 450.66 -16.72 447.07 C-16.78 446.31 -16.84 445.56 -16.91 444.78 C-17.11 442.37 -17.3 439.97 -17.5 437.56 C-17.7 435.16 -17.89 432.76 -18.09 430.36 C-18.21 428.87 -18.34 427.38 -18.45 425.89 C-18.7 422.94 -18.99 420.04 -19.49 417.13 C-19.98 414.12 -20.26 411.19 -20.46 408.15 C-20.54 407.02 -20.62 405.88 -20.7 404.71 C-20.78 403.49 -20.86 402.26 -20.94 401 C-21.06 399.08 -21.06 399.08 -21.19 397.11 C-21.47 392.93 -21.74 388.75 -22 384.56 C-22.05 383.85 -22.09 383.14 -22.14 382.4 C-24.41 346.58 -25.21 310.89 -25 275 C-26.05 275.24 -27.1 275.48 -28.19 275.73 C-47.22 279.84 -66.64 281.24 -86 283 C-94.42 309.89 -102.59 336.84 -110.71 363.82 C-112.14 368.58 -113.57 373.34 -115 378.09 C-115.36 379.3 -115.36 379.3 -115.73 380.52 C-122.46 402.89 -129.26 425.23 -136.06 447.57 C-137.03 450.75 -137.99 453.93 -138.96 457.11 C-139.6 459.21 -140.24 461.32 -140.88 463.42 C-145.3 477.93 -149.64 492.47 -154 507 C-195.58 507 -237.16 507 -280 507 C-278.24 499.96 -276.51 493.16 -274.25 486.31 C-271.9 479.06 -269.79 471.77 -267.77 464.42 C-264.19 451.54 -260.37 438.73 -256.5 425.94 C-255.24 421.76 -253.98 417.58 -252.72 413.4 C-252.41 412.37 -252.1 411.35 -251.78 410.29 C-249.63 403.13 -247.52 395.96 -245.44 388.79 C-242.47 378.56 -239.41 368.37 -236.32 358.19 C-230.85 340.22 -230.85 340.22 -225.56 322.19 C-222.19 310.48 -218.62 298.84 -215.06 287.19 C-210.72 272.95 -206.4 258.7 -202.19 244.42 C-200.36 238.2 -198.51 231.98 -196.65 225.77 C-196.35 224.76 -196.05 223.75 -195.74 222.71 C-195.12 220.63 -194.5 218.55 -193.88 216.47 C-188.13 197.22 -188.13 197.22 -182.5 177.94 C-178.85 165.29 -174.97 152.72 -171.13 140.13 C-164.93 119.8 -158.75 99.46 -153 79 C-188.09 81.55 -226.46 97.99 -253 121 C-253.83 121.71 -254.66 122.42 -255.51 123.14 C-274.69 139.92 -289.02 161.6 -291.21 187.46 C-293.11 216.05 -280.75 245.26 -264.87 268.69 C-264.26 269.78 -263.64 270.87 -263 272 C-264.07 275.31 -265.83 276.91 -268.61 278.89 C-269.36 279.43 -270.1 279.96 -270.86 280.52 C-271.67 281.09 -272.48 281.66 -273.31 282.25 C-275.05 283.51 -276.79 284.76 -278.53 286.02 C-279.43 286.68 -280.33 287.33 -281.27 288 C-285.68 291.23 -290.03 294.55 -294.37 297.88 C-295.25 298.54 -296.12 299.21 -297.01 299.89 C-299.68 301.93 -302.34 303.96 -305 306 C-316.83 315.06 -328.7 324.04 -340.71 332.85 C-346.17 336.86 -351.59 340.92 -357 345 C-361.44 343.43 -363.83 339.89 -366.62 336.31 C-367.42 335.31 -367.42 335.31 -368.22 334.28 C-401.71 291.18 -419.04 237.97 -413.54 183.33 C-412.98 179.14 -412.11 175.08 -411 171 C-410.81 170.29 -410.62 169.57 -410.43 168.84 C-405.86 152.16 -397.84 136.47 -387 123 C-386.27 122.07 -385.54 121.14 -384.79 120.18 C-377.09 110.54 -368.68 102.62 -359 95 C-358.12 94.29 -357.24 93.58 -356.33 92.85 C-316.02 61.35 -264.24 45.67 -214.89 35.25 C-214.08 35.08 -213.27 34.91 -212.43 34.73 C-192.67 30.58 -172.78 27.22 -152.85 23.93 C-147.76 23.09 -142.68 22.24 -137.59 21.39 C-129.1 19.97 -120.6 18.56 -112.1 17.15 C-102.3 15.53 -92.51 13.9 -82.71 12.26 C-73.2 10.67 -63.69 9.09 -54.19 7.51 C-50.17 6.84 -46.15 6.17 -42.13 5.5 C-37.42 4.71 -32.71 3.93 -28 3.15 C-26.28 2.87 -24.56 2.58 -22.83 2.29 C-20.48 1.9 -18.12 1.51 -15.77 1.12 C-14.76 0.95 -14.76 0.95 -13.72 0.77 C-9.08 0.03 -4.68 -0.09 0 0 Z"/></svg>